# ProBuilder 5.2.3
# https://unity3d.com/unity/features/worldbuilding/probuilder
# 2/14/2025 4:16:29 AM

mtllib ./TrainStationGreyBox.mtl
o TrainStationGreyBox

g Cube
v 0 -1.454451 72.50344
v -5.515189 -1.345954 72.50344
v 0 0.0604105 72.50344
v -5.515189 0.1689076 72.50344
v -5.515189 -1.345954 -123.9849
v -5.515189 0.1689076 -123.9849
v 0 -1.454451 -123.9849
v 0 0.0604105 -123.9849
v -0.009834311 -1.954354 -123.9849
v -5.525023 -1.845857 -123.9849
v -0.009834311 -1.954354 72.50344
v -5.525023 -1.845857 72.50344
v -41.44199 -1.326285 -123.9849
v -41.44199 -1.326285 72.50344
v -23.33639 -1.826189 -123.9849
v -23.33639 -1.826189 72.50344
v -18.60313 -1.33612 -123.9849
v -18.60313 -1.33612 72.50344
v -18.61296 -1.836023 -123.9849
v -18.61296 -1.836023 72.50344
v -18.60209 0.1546039 -123.9849
v -18.60209 0.1546039 72.50344
v -41.44095 0.1644382 -123.9849
v -41.44095 0.1644382 72.50344
v -41.94199 -1.325937 72.50344
v -41.94199 -1.325937 -123.9849
v -41.94095 0.1647862 72.50344
v -41.94095 0.1647862 -123.9849
v -41.4406 11.17042 -123.9849
v -41.4406 11.17042 72.50344
v -41.9406 11.17077 -123.9849
v -41.9406 11.17077 72.50344

vt 0 -1.454451
vt -5.515189 -1.345954
vt 0 0.0604105
vt -5.515189 0.1689076
vt 72.50344 -1.345954
vt -123.9849 -1.345954
vt 72.50344 0.1689076
vt -123.9849 0.1689076
vt 5.515189 -1.345954
vt 5.515189 0.1689076
vt 123.9849 -1.454451
vt -72.50344 -1.454451
vt 123.9849 0.0604105
vt -72.50344 0.0604105
vt 0.001188191 72.50344
vt 5.517444 72.50344
vt 0.001188191 -123.9849
vt 5.517444 -123.9849
vt 0.02860705 -123.9849
vt -5.487649 -123.9849
vt 0.02860705 72.50344
vt -5.487649 72.50344
vt 0.009834311 -1.954354
vt 5.525023 -1.845857
vt -72.50344 -1.95417
vt 123.9849 -1.95417
vt -41.3896 -123.9849
vt -41.3896 72.50344
vt -23.27709 -123.9849
vt -23.27709 72.50344
vt -5.525023 -1.845857
vt -0.009834311 -1.954354
vt 5.514176 -123.9849
vt 5.514176 72.50344
vt 18.60212 -123.9849
vt 18.60212 72.50344
vt 18.61296 -1.836023
vt 18.60313 -1.33612
vt -18.60313 -1.33612
vt -18.61296 -1.836023
vt -5.523634 72.50344
vt -5.523634 -123.9849
vt -18.61158 72.50344
vt -18.61158 -123.9849
vt 41.44101 -123.9849
vt 41.44101 72.50344
vt 23.33639 -1.826189
vt 41.44199 -1.326285
vt -41.44199 -1.326285
vt -23.33639 -1.826189
vt -18.6091 72.50344
vt -18.6091 -123.9849
vt -23.33253 72.50344
vt -23.33253 -123.9849
vt 123.9849 -1.349115
vt -72.50344 -1.349115
vt 123.9849 0.1416085
vt -72.50344 0.1416085
vt 41.44095 0.1644382
vt 18.60209 0.1546039
vt -18.60209 0.1546039
vt -41.44095 0.1644382
vt 72.50344 -1.35513
vt -123.9849 -1.35513
vt 72.50344 0.1355937
vt -123.9849 0.1355937
vt -41.44105 72.50344
vt -41.44105 -123.9849
vt -41.94105 72.50344
vt -41.94105 -123.9849
vt -41.94095 0.1647862
vt -41.94199 -1.325937
vt 41.94199 -1.325937
vt 41.94095 0.1647862
vt 41.44839 -123.9849
vt 41.44839 72.50344
vt 41.94839 -123.9849
vt 41.94839 72.50344
vt 123.9849 0.1631311
vt -72.50344 0.1631311
vt 123.9849 11.16911
vt -72.50344 11.16911
vt 41.9406 11.17077
vt 41.4406 11.17042
vt -41.4406 11.17042
vt -41.9406 11.17077
vt 72.50344 0.1634633
vt -123.9849 0.1634633
vt 72.50344 11.16944
vt -123.9849 11.16944

vn 0 0 1
vn -1 0 0
vn 0 0 -1
vn 1 0 0
vn 0.01966862 0.9998066 0
vn -0.01966862 -0.9998066 0
vn 0.9998066 -0.01966862 0
vn -0.02759991 -0.9996191 0
vn 0.0007514005 0.9999997 0
vn -0.0007514005 -0.9999997 0
vn 0.0004305945 0.9999999 0
vn -0.002082022 -0.9999979 0
vn 0.9999997 -0.0006985951 0
vn -0.9999997 0.0006960361 0

usemtl Lit
f 3/3/1 4/4/1 2/2/1 1/1/1
f 4/7/2 6/8/2 5/6/2 2/5/2
f 6/10/3 8/3/3 7/1/3 5/9/3
f 8/13/4 3/14/4 1/12/4 7/11/4
f 8/17/5 6/18/5 4/16/5 3/15/5
f 11/21/6 12/22/6 10/20/6 9/19/6
f 9/23/3 10/24/3 5/9/3 7/1/3
f 11/25/7 9/26/7 7/11/7 1/12/7
f 15/29/8 16/30/8 14/28/8 13/27/8
f 12/31/1 11/32/1 1/1/1 2/2/1
f 17/35/9 18/36/9 2/34/9 5/33/9
f 19/37/3 17/38/3 5/9/3 10/24/3
f 18/39/1 20/40/1 12/31/1 2/2/1
f 20/43/10 19/44/10 10/42/10 12/41/10
f 23/45/11 24/46/11 22/36/11 21/35/11
f 15/47/3 13/48/3 17/38/3 19/37/3
f 14/49/1 16/50/1 20/40/1 18/39/1
f 16/53/12 15/54/12 19/52/12 20/51/12
f 21/57/13 22/58/13 18/56/13 17/55/13
f 23/59/3 21/60/3 17/38/3 13/48/3
f 22/61/1 24/62/1 14/49/1 18/39/1
f 27/65/14 28/66/14 26/64/14 25/63/14
f 25/69/10 26/70/10 13/68/10 14/67/10
f 27/71/1 25/72/1 14/49/1 24/62/1
f 26/73/3 28/74/3 23/59/3 13/48/3
f 31/77/9 32/78/9 30/76/9 29/75/9
f 29/81/4 30/82/4 24/80/4 23/79/4
f 31/83/3 29/84/3 23/59/3 28/74/3
f 30/85/1 32/86/1 27/71/1 24/62/1
f 32/89/2 31/90/2 28/88/2 27/87/2

